<?xml version="1.0" encoding="UTF-16"?>
<!DOCTYPE svg PUBLIC "-//W3C//DTD SVG 1.1//EN" "http://www.w3.org/Graphics/SVG/1.1/DTD/svg11.dtd">
<!-- Creator: CorelDRAW 2021.5 -->
<svg xmlns="http://www.w3.org/2000/svg" xml:space="preserve" width="12.1532mm" height="11.7908mm" version="1.1" style="shape-rendering:geometricPrecision; text-rendering:geometricPrecision; image-rendering:optimizeQuality; fill-rule:evenodd; clip-rule:evenodd"
viewBox="0 0 172.4 167.26"
 xmlns:xlink="http://www.w3.org/1999/xlink"
 xmlns:xodm="http://www.corel.com/coreldraw/odm/2003">
 <defs>
  <style type="text/css">
   <![CDATA[
    .fil0 {fill:#FEFEFE}
   ]]>
  </style>
 </defs>
 <g id="Layer_x0020_1">
  <metadata id="CorelCorpID_0Corel-Layer"/>
  <g id="_2250412123216">
   <path class="fil0" d="M90.25 56.51c21.45,2.49 72.79,7.74 74.33,26.21 4.22,50.73 -74.31,-29.63 -74.32,84.54l0.27 -0c10.67,-0.75 20.39,-2.79 29.14,-5.87 30.9,-12.29 52.75,-42.47 52.75,-77.75 0,-44.43 -35.15,-80.45 -78.9,-83.51 -1.08,-0.06 -2.16,-0.1 -3.25,-0.12l0 56.51z"/>
   <path class="fil0" d="M82.15 110.75c-21.45,-2.49 -72.79,-7.74 -74.33,-26.21 -4.22,-50.73 74.32,29.63 74.33,-84.54l-0.27 0c-10.67,0.75 -20.39,2.79 -29.14,5.87 -30.9,12.29 -52.75,42.47 -52.75,77.75 0,44.43 35.15,80.45 78.9,83.51 1.08,0.06 2.16,0.1 3.25,0.12l0 -56.51z"/>
  </g>
 </g>
</svg>
